REM DIRINDEX 1\2,1\3,1\4
REM DIRNAME cjc038,folder01,folder02,folder03
TITLE ""
FILE "DISC2Track37.mp3" MP3
  TRACK 01 AUDIO
    TITLE "0:"
    INDEX 01 00:00:00
  TRACK 02 AUDIO
    TITLE "4:cjc038_2022"
    INDEX 01 00:00:07
  TRACK 03 AUDIO
    TITLE "0:"
    INDEX 01 00:02:55
  TRACK 04 AUDIO
    TITLE "2:cjc038_2023"
    INDEX 01 00:04:19
  TRACK 05 AUDIO
    TITLE "0:"
    INDEX 01 00:07:21
  TRACK 06 AUDIO
    TITLE "3:cjc038_2024"
    INDEX 01 00:07:27
  TRACK 07 AUDIO
    TITLE "0:"
    INDEX 01 00:10:23
  TRACK 08 AUDIO
    TITLE "2:cjc038_2025"
    INDEX 01 00:10:74
  TRACK 09 AUDIO
    TITLE "0:"
    INDEX 01 00:13:55
  TRACK 10 AUDIO
    TITLE "3:cjc038_2026"
    INDEX 01 00:13:63
  TRACK 11 AUDIO
    TITLE "0:"
    INDEX 01 00:16:36
  TRACK 12 AUDIO
    TITLE "2:cjc038_2027"
    INDEX 01 00:17:14
  TRACK 13 AUDIO
    TITLE "0:"
    INDEX 01 00:21:62
  TRACK 14 AUDIO
    TITLE "3:cjc038_2028"
    INDEX 01 00:21:72
  TRACK 15 AUDIO
    TITLE "0:"
    INDEX 01 00:26:34
  TRACK 16 AUDIO
    TITLE "2:cjc038_2029"
    INDEX 01 00:27:14
  TRACK 17 AUDIO
    TITLE "0:"
    INDEX 01 00:29:64
  TRACK 18 AUDIO
    TITLE "3:cjc038_2030"
    INDEX 01 00:29:70
  TRACK 19 AUDIO
    TITLE "0:"
    INDEX 01 00:32:29
  TRACK 20 AUDIO
    TITLE "2:cjc038_2031"
    INDEX 01 00:33:15
  TRACK 21 AUDIO
    TITLE "0:"
    INDEX 01 00:35:45
  TRACK 22 AUDIO
    TITLE "3:cjc038_2032"
    INDEX 01 00:35:53
  TRACK 23 AUDIO
    TITLE "0:"
    INDEX 01 00:37:69
  TRACK 24 AUDIO
    TITLE "2:cjc038_2033"
    INDEX 01 00:39:49
  TRACK 25 AUDIO
    TITLE "0:"
    INDEX 01 00:43:33
  TRACK 26 AUDIO
    TITLE "3:cjc038_2034"
    INDEX 01 00:43:39
  TRACK 27 AUDIO
    TITLE "0:"
    INDEX 01 00:47:17
  TRACK 28 AUDIO
    TITLE "2:cjc038_2035"
    INDEX 01 00:47:70
  TRACK 29 AUDIO
    TITLE "0:"
    INDEX 01 00:52:65
  TRACK 30 AUDIO
    TITLE "3:cjc038_2036"
    INDEX 01 00:52:73
  TRACK 31 AUDIO
    TITLE "0:"
    INDEX 01 00:57:50
  TRACK 32 AUDIO
    TITLE "2:cjc038_2037"
    INDEX 01 00:58:40
  TRACK 33 AUDIO
    TITLE "0:"
    INDEX 01 01:02:42
  TRACK 34 AUDIO
    TITLE "3:cjc038_2038"
    INDEX 01 01:02:50
  TRACK 35 AUDIO
    TITLE "0:"
    INDEX 01 01:06:36
  TRACK 36 AUDIO
    TITLE "2:cjc038_2039"
    INDEX 01 01:07:21
  TRACK 37 AUDIO
    TITLE "0:"
    INDEX 01 01:10:53
  TRACK 38 AUDIO
    TITLE "3:cjc038_2040"
    INDEX 01 01:10:57
  TRACK 39 AUDIO
    TITLE "0:"
    INDEX 01 01:13:59
  TRACK 40 AUDIO
    TITLE "2:cjc038_2041"
    INDEX 01 01:15:56
  TRACK 41 AUDIO
    TITLE "0:"
    INDEX 01 01:19:30
  TRACK 42 AUDIO
    TITLE "3:cjc038_2042"
    INDEX 01 01:19:38
  TRACK 43 AUDIO
    TITLE "0:"
    INDEX 01 01:23:01
  TRACK 44 AUDIO
    TITLE "2:cjc038_2043"
    INDEX 01 01:23:56
  TRACK 45 AUDIO
    TITLE "0:"
    INDEX 01 01:28:41
  TRACK 46 AUDIO
    TITLE "3:cjc038_2044"
    INDEX 01 01:28:51
  TRACK 47 AUDIO
    TITLE "0:"
    INDEX 01 01:33:29
  TRACK 48 AUDIO
    TITLE "2:cjc038_2045"
    INDEX 01 01:34:06
  TRACK 49 AUDIO
    TITLE "0:"
    INDEX 01 01:39:02
  TRACK 50 AUDIO
    TITLE "3:cjc038_2046"
    INDEX 01 01:39:10
  TRACK 51 AUDIO
    TITLE "0:"
    INDEX 01 01:43:62
  TRACK 52 AUDIO
    TITLE "2:cjc038_2047"
    INDEX 01 01:45:44
  TRACK 53 AUDIO
    TITLE "0:"
    INDEX 01 01:48:48
  TRACK 54 AUDIO
    TITLE "3:cjc038_2048"
    INDEX 01 01:48:56
  TRACK 55 AUDIO
    TITLE "0:"
    INDEX 01 01:51:42
  TRACK 56 AUDIO
    TITLE "2:cjc038_2049"
    INDEX 01 01:53:18
  TRACK 57 AUDIO
    TITLE "0:"
    INDEX 01 01:57:31
  TRACK 58 AUDIO
    TITLE "3:cjc038_2050"
    INDEX 01 01:57:37
  TRACK 59 AUDIO
    TITLE "0:"
    INDEX 01 02:01:35
  TRACK 60 AUDIO
    TITLE "2:cjc038_2051"
    INDEX 01 02:02:18
  TRACK 61 AUDIO
    TITLE "0:"
    INDEX 01 02:08:03
  TRACK 62 AUDIO
    TITLE "3:cjc038_2052"
    INDEX 01 02:08:05
  TRACK 63 AUDIO
    TITLE "0:"
    INDEX 01 02:13:56
  TRACK 64 AUDIO
    TITLE "2:cjc038_2053"
    INDEX 01 02:15:27
  TRACK 65 AUDIO
    TITLE "0:"
    INDEX 01 02:20:11
  TRACK 66 AUDIO
    TITLE "3:cjc038_2054"
    INDEX 01 02:20:16
  TRACK 67 AUDIO
    TITLE "0:"
    INDEX 01 02:24:63
  TRACK 68 AUDIO
    TITLE "2:cjc038_2055"
    INDEX 01 02:25:47
  TRACK 69 AUDIO
    TITLE "0:"
    INDEX 01 02:28:65
  TRACK 70 AUDIO
    TITLE "3:cjc038_2056"
    INDEX 01 02:29:00
  TRACK 71 AUDIO
    TITLE "0:"
    INDEX 01 02:32:02
  TRACK 72 AUDIO
    TITLE "2:cjc038_2057"
    INDEX 01 02:32:63
  TRACK 73 AUDIO
    TITLE "0:"
    INDEX 01 02:37:62
  TRACK 74 AUDIO
    TITLE "3:cjc038_2058"
    INDEX 01 02:37:68
  TRACK 75 AUDIO
    TITLE "0:"
    INDEX 01 02:42:55
  TRACK 76 AUDIO
    TITLE "2:cjc038_2059"
    INDEX 01 02:43:37
  TRACK 77 AUDIO
    TITLE "0:"
    INDEX 01 02:48:17
  TRACK 78 AUDIO
    TITLE "3:cjc038_2060"
    INDEX 01 02:48:26
  TRACK 79 AUDIO
    TITLE "0:"
    INDEX 01 02:52:63
  TRACK 80 AUDIO
    TITLE "2:cjc038_2061"
    INDEX 01 02:54:49
  TRACK 81 AUDIO
    TITLE "0:"
    INDEX 01 02:58:11
  TRACK 82 AUDIO
    TITLE "3:cjc038_2062"
    INDEX 01 02:58:17
  TRACK 83 AUDIO
    TITLE "0:"
    INDEX 01 03:01:39
  TRACK 84 AUDIO
    TITLE "2:cjc038_2063"
    INDEX 01 03:02:25
  TRACK 85 AUDIO
    TITLE "0:"
    INDEX 01 03:08:02
  TRACK 86 AUDIO
    TITLE "3:cjc038_2064"
    INDEX 01 03:08:10
  TRACK 87 AUDIO
    TITLE "0:"
    INDEX 01 03:13:54
  TRACK 88 AUDIO
    TITLE "2:cjc038_2065"
    INDEX 01 03:14:32
  TRACK 89 AUDIO
    TITLE "0:"
    INDEX 01 03:18:31
  TRACK 90 AUDIO
    TITLE "3:cjc038_2066"
    INDEX 01 03:18:35
  TRACK 91 AUDIO
    TITLE "0:"
    INDEX 01 03:22:21
  TRACK 92 AUDIO
    TITLE "2:cjc038_2067"
    INDEX 01 03:23:09
  TRACK 93 AUDIO
    TITLE "0:"
    INDEX 01 03:28:10
  TRACK 94 AUDIO
    TITLE "3:cjc038_2068"
    INDEX 01 03:28:16
  TRACK 95 AUDIO
    TITLE "0:"
    INDEX 01 03:32:73
  TRACK 96 AUDIO
    TITLE "2:cjc038_2069"
    INDEX 01 03:33:64
  TRACK 97 AUDIO
    TITLE "0:"
    INDEX 01 03:38:03
  TRACK 98 AUDIO
    TITLE "3:cjc038_2070"
    INDEX 01 03:38:09
  TRACK 99 AUDIO
    TITLE "0:"
    INDEX 01 03:42:05
  TRACK 100 AUDIO
    TITLE "2:cjc038_2071"
    INDEX 01 03:42:69
  TRACK 101 AUDIO
    TITLE "0:"
    INDEX 01 03:46:02
  TRACK 102 AUDIO
    TITLE "3:cjc038_2072"
    INDEX 01 03:46:08
  TRACK 103 AUDIO
    TITLE "0:"
    INDEX 01 03:49:01
  TRACK 104 AUDIO
    TITLE "2:cjc038_2073"
    INDEX 01 03:49:61
  TRACK 105 AUDIO
    TITLE "0:"
    INDEX 01 03:52:44
  TRACK 106 AUDIO
    TITLE "3:cjc038_2074"
    INDEX 01 03:52:50
  TRACK 107 AUDIO
    TITLE "0:"
    INDEX 01 03:55:13
  TRACK 108 AUDIO
    TITLE "2:cjc038_2075"
    INDEX 01 03:56:05
  TRACK 109 AUDIO
    TITLE "0:"
    INDEX 01 03:58:54
  TRACK 110 AUDIO
    TITLE "3:cjc038_2076"
    INDEX 01 03:58:62
  TRACK 111 AUDIO
    TITLE "0:"
    INDEX 01 04:01:21
  TRACK 112 AUDIO
    TITLE "2:cjc038_2077"
    INDEX 01 04:02:05
  TRACK 113 AUDIO
    TITLE "0:"
    INDEX 01 04:05:02
  TRACK 114 AUDIO
    TITLE "3:cjc038_2078"
    INDEX 01 04:05:06
  TRACK 115 AUDIO
    TITLE "0:"
    INDEX 01 04:07:65
